<?xml version="1.0" encoding="UTF-8" standalone="no"?>
<svg
   xmlns:dc="http://purl.org/dc/elements/1.1/"
   xmlns:cc="http://creativecommons.org/ns#"
   xmlns:rdf="http://www.w3.org/1999/02/22-rdf-syntax-ns#"
   xmlns:svg="http://www.w3.org/2000/svg"
   xmlns="http://www.w3.org/2000/svg"
   xmlns:sodipodi="http://sodipodi.sourceforge.net/DTD/sodipodi-0.dtd"
   xmlns:inkscape="http://www.inkscape.org/namespaces/inkscape"
   x="0px"
   y="0px"
   width="80px"
   height="16px"
   viewBox="0 0 80 16"
   id="svg2"
   version="1.1"
   inkscape:version="0.91 r13725"
   sodipodi:docname="cd-sprite-1.svg">
  <metadata
     id="metadata42">
    <rdf:RDF>
      <cc:Work
         rdf:about="">
        <dc:format>image/svg+xml</dc:format>
        <dc:type
           rdf:resource="http://purl.org/dc/dcmitype/StillImage" />
        <dc:title></dc:title>
      </cc:Work>
    </rdf:RDF>
  </metadata>
  <defs
     id="defs40" />
  <sodipodi:namedview
     pagecolor="#ffffff"
     bordercolor="#666666"
     borderopacity="1"
     objecttolerance="10"
     gridtolerance="10"
     guidetolerance="10"
     inkscape:pageopacity="0"
     inkscape:pageshadow="2"
     inkscape:window-width="1920"
     inkscape:window-height="1017"
     id="namedview38"
     showgrid="false"
     inkscape:zoom="20.364675"
     inkscape:cx="44.933643"
     inkscape:cy="2.1687159"
     inkscape:window-x="-8"
     inkscape:window-y="-8"
     inkscape:window-maximized="1"
     inkscape:current-layer="svg2" />
  <g
     transform="translate(0, 0)"
     id="g4"
     style="fill:#ffbb33;fill-opacity:1">
    <path
       fill="#ffffff"
       d="M13,11H3c-0.6,0-1-0.4-1-1V2H0V0h3c0.6,0,1,0.4,1,1v1h11c0.9,0,1,1,1,1.3l-2,7C13.8,10.7,13.4,11,13,11z   M4,9h8.2l1.4-5H4V9z"
       id="path6"
       style="fill:#ffbb33;fill-opacity:1" />
    <circle
       data-color="color-2"
       fill="#ffffff"
       cx="3"
       cy="14"
       r="2"
       id="circle8"
       style="fill:#ffbb33;fill-opacity:1" />
    <circle
       data-color="color-2"
       fill="#ffffff"
       cx="13"
       cy="14"
       r="2"
       id="circle10"
       style="fill:#ffbb33;fill-opacity:1" />
  </g>
  <g
     transform="translate(16, 0)"
     id="g12"
     style="fill:#ffbb33;fill-opacity:1">
    <path
       fill="#ffffff"
       d="M15,1H1C0.4,1,0,1.4,0,2v12c0,0.6,0.4,1,1,1h14c0.6,0,1-0.4,1-1V2C16,1.4,15.6,1,15,1z M14,13H2V6.7l5.5,3.1  C7.7,10,7.8,10,8,10s0.3,0,0.5-0.1L14,6.7V13z M14,4.4L8,7.8L2,4.4V3h12V4.4z"
       id="path14"
       style="fill:#ffbb33;fill-opacity:1" />
  </g>
  <g
     transform="translate(32, 0)"
     id="g16"
     style="fill:#ffbb33;fill-opacity:1">
    <path
       fill="#ffffff"
       d="M3,16h10c0.6,0,1-0.4,1-1V7.5l0.3,0.3C14.5,7.9,14.8,8,15,8c0.3,0,0.6-0.1,0.8-0.3c0.4-0.4,0.3-1-0.1-1.4  l-7-6c-0.4-0.3-0.9-0.3-1.3,0L4,3.1V2c0-0.6-0.4-1-1-1S2,1.4,2,2v2.8L0.3,6.2c-0.4,0.4-0.5,1-0.1,1.4c0.4,0.4,1,0.5,1.4,0.1L2,7.5  V15C2,15.6,2.4,16,3,16z M4,5.7l4-3.4l4,3.5c0,0.1,0,0.1,0,0.2v8h-2v-3c0-0.6-0.4-1-1-1H7c-0.6,0-1,0.4-1,1v3H4V5.7z"
       id="path18"
       style="fill:#ffbb33;fill-opacity:1" />
    <rect
       data-color="color-2"
       x="6"
       y="6"
       fill="#ffffff"
       width="4"
       height="2"
       id="rect20"
       style="fill:#ffbb33;fill-opacity:1" />
  </g>
  <g
     transform="translate(48, 0)"
     id="g22"
     style="fill:#ffbb33;fill-opacity:1">
    <circle
       data-color="color-2"
       fill="#ffffff"
       cx="6"
       cy="8"
       r="2"
       id="circle24"
       style="fill:#ffbb33;fill-opacity:1" />
    <path
       fill="#ffffff"
       d="M10,2H6C2.7,2,0,4.7,0,8s2.7,6,6,6h4c3.3,0,6-2.7,6-6S13.3,2,10,2z M10,12H6c-2.2,0-4-1.8-4-4s1.8-4,4-4h4  c2.2,0,4,1.8,4,4S12.2,12,10,12z"
       id="path26"
       style="fill:#ffbb33;fill-opacity:1" />
  </g>
  <g
     transform="translate(64, 0)"
     id="g28"
     style="fill:#ffbb33;fill-opacity:1">
    <path
       fill="#ffffff"
       d="M6,0H1C0.4,0,0,0.4,0,1v5c0,0.6,0.4,1,1,1h5c0.6,0,1-0.4,1-1V1C7,0.4,6.6,0,6,0z M5,5H2V2h3V5z"
       id="path30"
       style="fill:#ffbb33;fill-opacity:1" />
    <path
       fill="#ffffff"
       d="M15,0h-5C9.4,0,9,0.4,9,1v5c0,0.6,0.4,1,1,1h5c0.6,0,1-0.4,1-1V1C16,0.4,15.6,0,15,0z M14,5h-3V2h3V5z"
       id="path32"
       style="fill:#ffbb33;fill-opacity:1" />
    <path
       fill="#ffffff"
       d="M6,9H1c-0.6,0-1,0.4-1,1v5c0,0.6,0.4,1,1,1h5c0.6,0,1-0.4,1-1v-5C7,9.4,6.6,9,6,9z M5,14H2v-3h3V14z"
       id="path34"
       style="fill:#ffbb33;fill-opacity:1" />
    <path
       fill="#ffffff"
       d="M15,9h-5c-0.6,0-1,0.4-1,1v5c0,0.6,0.4,1,1,1h5c0.6,0,1-0.4,1-1v-5C16,9.4,15.6,9,15,9z M14,14h-3v-3h3V14z"
       id="path36"
       style="fill:#ffbb33;fill-opacity:1" />
  </g>
</svg>
