<?xml version="1.0" encoding="utf-8"?>
<!-- Generator: Adobe Illustrator 19.0.0, SVG Export Plug-In . SVG Version: 6.00 Build 0)  -->
<svg version="1.1"
	 id="svg2" xmlns:dc="http://purl.org/dc/elements/1.1/" xmlns:cc="http://creativecommons.org/ns#" xmlns:rdf="http://www.w3.org/1999/02/22-rdf-syntax-ns#" xmlns:svg="http://www.w3.org/2000/svg" xmlns:sodipodi="http://sodipodi.sourceforge.net/DTD/sodipodi-0.dtd" xmlns:inkscape="http://www.inkscape.org/namespaces/inkscape" sodipodi:docname="cd-sprite-1.svg" inkscape:version="0.91 r13725"
	 xmlns="http://www.w3.org/2000/svg" xmlns:xlink="http://www.w3.org/1999/xlink" x="0px" y="0px" viewBox="-159 193 80 16"
	 style="enable-background:new -159 193 80 16;" xml:space="preserve">
<style type="text/css">
	.st0{fill:#FFBB33;}
</style>
<sodipodi:namedview  inkscape:cy="2.1687159" inkscape:cx="44.933643" inkscape:zoom="20.364675" showgrid="false" guidetolerance="10" gridtolerance="10" objecttolerance="10" bordercolor="#666666" pagecolor="#ffffff" borderopacity="1" id="namedview38" inkscape:current-layer="svg2" inkscape:window-maximized="1" inkscape:window-y="-8" inkscape:window-x="-8" inkscape:window-height="1017" inkscape:window-width="1920" inkscape:pageshadow="2" inkscape:pageopacity="0">
	</sodipodi:namedview>
<g id="g12" transform="translate(16, 0)">
	<path id="path14" class="st0" d="M-152,194h-14c-0.6,0-1,0.4-1,1v12c0,0.6,0.4,1,1,1h14c0.6,0,1-0.4,1-1v-12
		C-151,194.4-151.4,194-152,194z M-153,206h-12v-6.3l5.5,3.1c0.2,0.2,0.3,0.2,0.5,0.2s0.3,0,0.5-0.1l5.5-3.2V206z M-153,197.4
		l-6,3.4l-6-3.4V196h12V197.4z"/>
</g>
<g id="g16" transform="translate(32, 0)">
	<path id="path18" class="st0" d="M-164,209h10c0.6,0,1-0.4,1-1v-7.5l0.3,0.3c0.2,0.1,0.5,0.2,0.7,0.2c0.3,0,0.6-0.1,0.8-0.3
		c0.4-0.4,0.3-1-0.1-1.4l-7-6c-0.4-0.3-0.9-0.3-1.3,0l-3.4,2.8V195c0-0.6-0.4-1-1-1s-1,0.4-1,1v2.8l-1.7,1.4c-0.4,0.4-0.5,1-0.1,1.4
		s1,0.5,1.4,0.1l0.4-0.2v7.5C-165,208.6-164.6,209-164,209z M-163,198.7l4-3.4l4,3.5c0,0.1,0,0.1,0,0.2v8h-2v-3c0-0.6-0.4-1-1-1h-2
		c-0.6,0-1,0.4-1,1v3h-2V198.7z"/>
	<rect id="rect20" x="-161" y="199" class="st0" width="4" height="2"/>
</g>
<g id="g22" transform="translate(48, 0)">
	<circle id="circle24" class="st0" cx="-161" cy="201" r="2"/>
	<path id="path26" class="st0" d="M-157,195h-4c-3.3,0-6,2.7-6,6s2.7,6,6,6h4c3.3,0,6-2.7,6-6S-153.7,195-157,195z M-157,205h-4
		c-2.2,0-4-1.8-4-4s1.8-4,4-4h4c2.2,0,4,1.8,4,4S-154.8,205-157,205z"/>
</g>
<g id="g28" transform="translate(64, 0)">
	<path id="path30" class="st0" d="M-161,193h-5c-0.6,0-1,0.4-1,1v5c0,0.6,0.4,1,1,1h5c0.6,0,1-0.4,1-1v-5
		C-160,193.4-160.4,193-161,193z M-162,198h-3v-3h3V198z"/>
	<path id="path32" class="st0" d="M-152,193h-5c-0.6,0-1,0.4-1,1v5c0,0.6,0.4,1,1,1h5c0.6,0,1-0.4,1-1v-5
		C-151,193.4-151.4,193-152,193z M-153,198h-3v-3h3V198z"/>
	<path id="path34" class="st0" d="M-161,202h-5c-0.6,0-1,0.4-1,1v5c0,0.6,0.4,1,1,1h5c0.6,0,1-0.4,1-1v-5
		C-160,202.4-160.4,202-161,202z M-162,207h-3v-3h3V207z"/>
	<path id="path36" class="st0" d="M-152,202h-5c-0.6,0-1,0.4-1,1v5c0,0.6,0.4,1,1,1h5c0.6,0,1-0.4,1-1v-5
		C-151,202.4-151.4,202-152,202z M-153,207h-3v-3h3V207z"/>
</g>
</svg>
